<?xml version="1.0" standalone="no"?>
<!DOCTYPE svg PUBLIC "-//W3C//DTD SVG 20010904//EN"
 "http://www.w3.org/TR/2001/REC-SVG-20010904/DTD/svg10.dtd">
<svg version="1.0" xmlns="http://www.w3.org/2000/svg"
 width="512.000000pt" height="512.000000pt" viewBox="0 0 512.000000 512.000000"
 preserveAspectRatio="xMidYMid meet">
<metadata>
Created by potrace 1.11, written by Peter Selinger 2001-2013
</metadata>
<g transform="translate(0.000000,512.000000) scale(0.100000,-0.100000)"
fill="#000000" stroke="none">
<path d="M1924 4392 l1 -346 100 1 c55 1 107 2 115 2 13 1 15 46 15 344 l-1
342 -116 1 -116 1 2 -345z"/>
<path d="M595 4140 c-43 -44 -77 -82 -74 -84 2 -3 112 -114 244 -246 l239
-240 78 77 c42 43 77 82 78 86 0 8 -475 487 -482 487 -2 0 -39 -36 -83 -80z"/>
<path d="M3152 3977 l-242 -242 83 -83 82 -82 243 243 243 243 -81 82 c-44 45
-82 82 -83 82 -1 0 -111 -109 -245 -243z"/>
<path d="M1890 3794 c-307 -45 -570 -202 -743 -442 -149 -207 -215 -417 -212
-668 3 -189 43 -347 126 -503 22 -40 38 -75 36 -77 -2 -2 -30 -6 -63 -9 -95
-8 -163 -25 -254 -62 -419 -172 -629 -629 -488 -1063 79 -242 284 -452 526
-536 150 -52 103 -51 1892 -49 916 1 1679 5 1695 9 242 56 408 158 543 333 71
91 139 249 161 373 16 89 6 283 -19 370 -74 260 -264 470 -514 570 l-70 28 -2
113 c-3 129 -10 198 -30 284 -95 414 -428 751 -839 849 -191 45 -445 37 -606
-19 -49 -18 -59 -18 -59 -5 0 16 -91 131 -152 192 -145 143 -338 251 -528 294
-19 4 -37 8 -40 9 -84 20 -256 24 -360 9z"/>
<path d="M4 2811 c-2 -2 -4 -55 -4 -116 l0 -112 345 0 345 -1 0 117 0 116
-341 0 c-187 0 -343 -2 -345 -4z"/>
</g>
</svg>
